<svg width="16" height="22" viewBox="0 0 16 22" fill="none" xmlns="http://www.w3.org/2000/svg">
<path d="M7.66036 0H5.32292H2.7942C1.2512 0 0.000197826 1.22497 0.000197826 2.73587V15.5561C4.12597 13.0054 5.60335 9.75466 6.05832 8.42578L4.7419 9.36229L5.43621 7.26956L3.61835 5.97623H5.86544L6.55975 3.88351L7.25406 5.97623H9.50115L7.68329 7.26956L8.37761 9.36229L6.95368 8.34942C6.50989 10.2431 4.69403 16.7453 0 20.364C0 20.8067 0.366602 21.1657 0.818771 21.1657H4.50394C4.95611 21.1657 5.32272 20.8067 5.32272 20.364V16.2684C5.32272 15.9194 5.61173 15.6366 5.96796 15.6366H7.66016C12.0698 15.6366 15.6442 12.1362 15.6442 7.81857C15.6444 3.50031 12.07 0 7.66036 0Z" fill="#BFF747"/>
</svg>
